<svg xml:space="preserve" width="493.58" height="635.721" xmlns="http://www.w3.org/2000/svg"><path d="M62.299 0C55.57-.005 55.23.04 51.64 1.414 36.882 7.063 26.188 23.653 21.068 48.838c-1.495 7.358-1.736 8.772-2.252 13.227a492.172 492.172 0 0 1-.673 5.603c-1.427 10.64-1.886 47.103-.768 60.969 2.325 28.826 5.824 50.073 12.92 78.451 6.09 24.357 13.786 47.654 23.842 72.176 13.724 33.467 30.393 63.74 45.92 83.693l-2.662 1.68c-22.902 26.777-38.207 59.495-43.942 93.115L7.57 447.084 0 479.65l50.982 11.85c.508 20.176 4.621 38.936 12.143 55.903L0 562.078l7.57 32.565 73.963-17.195c5.852 7.212 12.513 13.925 19.973 20.082 26.592 21.95 62.117 35.251 101.365 38.191l33.434-.002c39.248-2.94 74.771-16.238 101.363-38.19 7.46-6.157 14.12-12.871 19.973-20.083l73.963 17.195 7.57-32.565-63.125-14.675c7.52-16.965 11.632-35.724 12.14-55.899l50.983-11.851-7.57-32.565-45.883 10.666c-5.664-33.21-20.699-65.513-43.137-92.105 7.754-9.457 15.062-20.425 23.12-34.82 4.986-8.91 13.104-25.2 16.917-33.954 1.474-3.382 2.84-6.157 3.037-6.164.198-.007 2.519 1.575 5.157 3.518 24.932 18.362 49.98 26.617 68.787 22.67 14.381-3.019 26.203-14.191 30.806-29.115 2.788-9.038 3.832-21.209 2.76-32.147-3.381-34.484-22.355-78.573-49.734-115.568-20.55-27.767-44.581-53.723-63.739-68.844C362.364 57.545 347 50.408 334.877 50.408c-3.194 0-8.586 1.354-11.738 2.946-9.462 4.778-18.814 15.588-27.04 31.252-3.297 6.28-9.818 20.126-11.658 24.754a148.865 148.865 0 0 1-2.267 5.379c-.56 1.232-1.754 4.157-2.65 6.5-.898 2.342-2.11 5.368-2.696 6.724-3.073 7.12-11.094 30.891-14.974 44.383-10.295 35.788-16.94 79.18-19.633 128.213-.071 1.297-.035 4.213-.08 6.045-7.437-1.161-14.962-1.807-22.555-1.807-5.774 0-11.513.351-17.201 1.026-.252-9.015-.642-17.702-1.324-24.094-.119-1.11-.326-3.327-.46-4.93-.498-5.968-.762-8.52-1.833-17.709-2.811-24.115-7.657-51.993-12.077-69.486-.872-3.452-1.889-7.486-2.261-8.965-.938-3.724-4.665-15.867-7.912-25.777-11.692-35.683-24.216-63.275-41.815-92.125-13.73-22.508-27.449-38.885-42.65-50.912-6.26-4.954-12.338-8.329-18.994-10.55C69.533.1 68.728.006 62.299 0Zm12.826 70.162c11.166-.495 24.8 10.723 38.945 32.248 16.946 25.786 33.164 70.16 44.569 121.938 5.13 23.295 9.907 50.384 11.232 63.707.23 2.316.622 5.73.87 7.588 1.546 11.634 1.456 30.209-.19 39.65-1.793 10.279-5.922 17.187-12.076 20.196-2.297 1.122-3.28 1.323-6.95 1.425-2.662.074-4.949-.104-6.066-.474-7.452-2.47-13.76-8.08-23.805-21.174-2.399-3.127-7.518-10.922-11.017-16.775-6.846-11.452-13.488-25.01-21.196-43.262-4-9.471-4.74-11.288-7.857-19.276-8.401-21.527-15.277-43.07-19.53-61.193-8.963-38.198-11.362-73.482-6.675-98.187 2.494-13.148 8.31-22.948 15.119-25.477a15.135 15.135 0 0 1 4.627-.934zm230.469 84.907c.608.087 1.212 1.488 2.14 4.05 2.418 6.67 5.537 13.81 9.875 22.604 11.141 22.583 24.795 43.305 42.006 63.752 2.413 2.867 4.389 5.607 4.389 6.092 0 .824-5.413 14.862-8.432 21.869a9113.4 9113.4 0 0 1-5.91 13.674c-8.853 20.444-17.7 36.366-27.654 49.765-9.05 12.184-17.445 18.953-25.026 20.178-3.263.528-3.81.512-6.947-.182-1.356-.3-3.218-.907-4.137-1.351-1.893-.916-5.726-4.149-5.726-4.828 0-.247-.597-1.29-1.326-2.317-1.737-2.445-3.862-8.319-4.508-12.46l-.967-6.217c-.62-3.994-.595-24.125.037-30.71 1.63-16.978 3.818-32.035 7.69-52.898.732-3.945 1.523-7.778 1.76-8.517.236-.74.747-3.262 1.136-5.604.39-2.342 1.084-5.873 1.543-7.846.46-1.972 1.072-4.796 1.361-6.275.565-2.888 4.251-18.032 6.002-24.66 1.85-7 5.51-19.016 9.627-31.602 1.495-4.567 2.284-6.63 3.067-6.517zM271.38 400.766c11.388 0 20.637 9.372 20.637 20.934 0 11.562-9.248 20.933-20.637 20.933-11.403 0-20.652-9.371-20.652-20.933s9.25-20.934 20.652-20.934zm-103.738.162c11.308 0 20.496 9.295 20.496 20.772 0 11.474-9.188 20.779-20.496 20.779-11.293 0-20.485-9.303-20.485-20.78 0-11.476 9.19-20.771 20.485-20.771z"/></svg>